<?xml version="1.0" encoding="UTF-8"?>
<svg id="Layer_2" data-name="Layer 2" xmlns="http://www.w3.org/2000/svg" viewBox="0 0 864 136.73">
  <defs>
    <style>
      .cls-1 {
        fill: #003128;
      }

      .cls-1, .cls-2 {
        stroke-width: 0px;
      }

      .cls-2 {
        fill: #2ac652;
      }
    </style>
  </defs>
  <g id="Layer_2-2" data-name="Layer 2">
    <g>
      <g>
        <path class="cls-1" d="M409.8,23.25c0-8.17,5.49-14.07,15.54-14.07,7.77,0,12.33,4.56,12.33,10.32,0,8.17-5.49,14.07-15.54,14.07-7.77,0-12.33-4.56-12.33-10.32Z"/>
        <path class="cls-1" d="M800.07,39.8c-.98-.54-4.38-1.07-6.26-1.07-8.72,0-15.06,3.22-20.68,15.31l2.51-14.23h-23.36l-.71,4c-.92,5.23,2.15,10.45,7.26,11.91,1.65.47,3.59.89,5.88,1.33-7.14,1.27-11.29,2.44-14.29,5.03-1.7,1.48-2.72,3.59-3.11,5.81l-7.26,41.19h15.85c5.12,0,9.49-3.67,10.38-8.71l3.91-22.17c1.89-10.74,9.16-16.92,18.55-16.92h7.52l3.79-21.48Z"/>
        <path class="cls-1" d="M408.64,39.8l-.69,3.89c-.93,5.3,2.26,10.44,7.42,11.96,1.7.5,3.72.94,6.11,1.4-8.49,1.51-12.75,2.87-15.87,6.67-1.07,1.31-1.72,2.92-2.01,4.59l-7.19,40.77h15.85c5.12,0,9.49-3.67,10.38-8.71l10.68-60.56h-24.7Z"/>
        <path class="cls-1" d="M255.41,13.49h-25.86c-3.91,0-7.5,2.17-9.32,5.62l-47.45,89.96h20.07c3.99,0,7.64-2.25,9.43-5.82l4.54-9.08h36.51l2.2,14.9h26.58l-16.71-95.58ZM216.49,74.3l18.74-37.72,5.43,37.72h-24.16Z"/>
        <path class="cls-1" d="M333.99,57.04c8.23-1.47,12.48-2.78,15.58-6.32,1.16-1.32,1.83-3.01,2.14-4.74l1.09-6.19h-23.36l-1.66,9.4c-2.58-5.91-6.97-10.74-17.7-10.74-18.66,0-33.24,13.42-36.86,33.96-3.62,20.54,6.23,33.96,24.88,33.96,9,0,15.12-3.49,19.8-8.72l-2.11,11.95c-1.33,7.52-5.75,11.28-12.86,11.28s-9.5-3.22-9.39-9.93h-23.36c-2.79,15.84,6.06,25.78,28.61,25.78,25.24,0,39.19-12.89,42.97-34.37l5.64-32c.94-5.31-2.27-10.48-7.46-11.97-1.67-.48-3.63-.91-5.96-1.35ZM322.34,72.43c-1.99,11.28-7.79,16.78-15.17,16.78s-11.25-5.5-9.26-16.78c1.99-11.28,7.79-16.78,15.17-16.78s11.25,5.5,9.26,16.78Z"/>
        <path class="cls-1" d="M399.69,38.73c-8.72,0-15.06,3.22-20.68,15.31l2.51-14.23h-23.36l-.71,4.02c-.92,5.24,2.16,10.46,7.28,11.91,1.63.46,3.55.88,5.8,1.31-9.38,1.67-13.6,3.16-16.81,7.95l-7.77,44.08h15.85c5.12,0,9.49-3.67,10.38-8.71l3.91-22.17c1.89-10.74,9.16-16.92,18.55-16.92h7.52l3.69-20.93.1-.55c-.98-.54-4.38-1.07-6.26-1.07Z"/>
        <path class="cls-1" d="M478.54,80.35c-2.77,8.86-7.94,11.55-14.12,11.55-8.32,0-11.94-5.37-9.81-17.45,2.13-12.08,7.64-17.45,15.97-17.45,7.25,0,10.43,4.03,10.14,11.01h23.36c2.7-15.3-6.34-29.53-30.23-29.53s-40.17,14.63-43.93,35.97c-3.76,21.35,7.21,35.98,31.24,35.98s37.81-13.42,40.74-30.07h-23.36Z"/>
        <path class="cls-1" d="M555.22,39.8l-22.1,50.75-4.21-50.75h-25.77l10.52,59.88c.89,4.83,1.17,8.59.67,11.41-.87,4.97-4.07,7.11-9.98,7.11h-8.72l-3.03,17.18h8.72c21.48,0,34.27-8.59,48.45-35.71l31.23-59.88h-25.77Z"/>
        <path class="cls-1" d="M616.8,80.35c-2.77,8.86-7.94,11.55-14.12,11.55-8.32,0-11.94-5.37-9.81-17.45,2.13-12.08,7.64-17.45,15.97-17.45,7.25,0,10.43,4.03,10.14,11.01h23.36c2.7-15.3-6.34-29.53-30.23-29.53s-40.17,14.63-43.93,35.97c-3.76,21.35,7.21,35.98,31.24,35.98s37.81-13.42,40.74-30.07h-23.36Z"/>
        <path class="cls-1" d="M653.29,13.49l-1.48,8.42c1.21,6.15,4.7,7.76,14.44,9.61-9.07,1.62-13.32,3.05-16.5,7.48-.88,1.22-1.42,2.66-1.69,4.15l-11.62,65.93h15.85c5.12,0,9.49-3.67,10.38-8.71l15.32-86.87h-24.7Z"/>
        <path class="cls-1" d="M741.3,52.91c-4.45-9.02-13.97-14.44-28.23-14.44-23.52,0-39.39,14.61-43.14,35.96-3.78,21.35,7.2,35.99,31.25,35.99,20.12,0,33.38-9.66,38.74-24.16h-22.96c-2.49,5.1-7.26,7.76-12.91,7.76-4.07,0-6.97-1.35-8.7-3.78-1.2-1.73-1.82-3.98-1.9-6.71h-18.57c14-2.52,16.4-4.6,21.32-18.24.01,1.89.06,3.56.16,5.03.38,5.56,4.96,9.87,10.53,9.87h35.17c.61-1.91.98-3.35,1.37-5.42.02-.12.04-.22.07-.34,1.47-8.38.69-15.7-2.19-21.52ZM696.35,64.63c2.58-6.15,7.12-9.78,13.82-9.78s9.96,3.63,10.34,9.78h-24.16Z"/>
        <path class="cls-1" d="M831.75,54.3c6.44,0,7.78,3.09,7.72,7.25h24.16c2.39-13.56-6.53-23.09-28.81-23.09s-34.57,9.53-36.91,22.82c-2.2,12.48,2.86,18.8,21.85,21.48l9.43,1.34c4.72.67,7.23,2.42,6.75,5.1-.57,3.22-4.3,5.37-10.75,5.37-6.98,0-9.64-2.42-9.41-8.32h-24.16c-2.58,14.63,6.88,24.16,30.51,24.16s36.45-9.53,38.79-22.82c2.63-14.9-6.41-20-24.08-22.55l-9.43-1.34c-3.93-.54-4.86-2.15-4.43-4.56.47-2.69,3.14-4.83,8.77-4.83Z"/>
      </g>
      <path class="cls-2" d="M119.23,4.59c-27.62-10.74-57.49-2.28-76.11,21.57l-.03.05c-3.2,4.56-1.4,9.2,1.62,11.58,3.01,2.37,7.93,3.02,11.63-1.17,6.6-7.92,15.69-13.51,25.6-15.74,9.54-2.22,20.2-1.18,29.25,2.86,18.15,8,29.08,27.84,26,47.19-2.56,18.57-18.3,34.05-36.63,36.01-8.8,1.18-17.9-.64-25.63-5.14-2.92-1.66-5.66-3.78-8.18-6.31,5.95-3.1,12.6-4.73,19.32-4.73v-1.08h0,0v-1.08c-23.12,0-41.92-18.83-41.92-41.97h-2.16C41.97,69.75,23.15,88.58,0,88.58v1.08h0,0v1.08c23.14,0,41.97,18.83,41.97,41.98h2.16c0-4.44.69-8.8,2.05-12.98,4.4,3.75,9.16,6.91,14.17,9.4,9.98,5.07,20.85,7.59,31.74,7.59,11.79,0,23.58-2.96,34.26-8.86,20.5-11.32,33.48-31.05,35.6-54.14,2.45-30.95-14.32-58.08-42.72-69.13Z"/>
    </g>
  </g>
</svg>