<svg width="24" height="25" viewBox="0 0 24 25" fill="none" xmlns="http://www.w3.org/2000/svg">
<g id="flat-color-icons:google">
<path id="Vector" d="M21.8055 10.5767H21V10.5352H12V14.5352H17.6515C16.827 16.8637 14.6115 18.5352 12 18.5352C8.6865 18.5352 6 15.8487 6 12.5352C6 9.22166 8.6865 6.53516 12 6.53516C13.5295 6.53516 14.921 7.11216 15.9805 8.05466L18.809 5.22616C17.023 3.56166 14.634 2.53516 12 2.53516C6.4775 2.53516 2 7.01266 2 12.5352C2 18.0577 6.4775 22.5352 12 22.5352C17.5225 22.5352 22 18.0577 22 12.5352C22 11.8647 21.931 11.2102 21.8055 10.5767Z" fill="#FFC107"/>
<path id="Vector_2" d="M3.15308 7.88066L6.43858 10.2902C7.32758 8.08916 9.48058 6.53516 12.0001 6.53516C13.5296 6.53516 14.9211 7.11216 15.9806 8.05466L18.8091 5.22616C17.0231 3.56166 14.6341 2.53516 12.0001 2.53516C8.15908 2.53516 4.82808 4.70366 3.15308 7.88066Z" fill="#FF3D00"/>
<path id="Vector_3" d="M11.9999 22.535C14.5829 22.535 16.9299 21.5465 18.7044 19.939L15.6094 17.32C14.5717 18.1092 13.3036 18.536 11.9999 18.535C9.39891 18.535 7.19041 16.8765 6.35841 14.562L3.09741 17.0745C4.75241 20.313 8.11341 22.535 11.9999 22.535Z" fill="#4CAF50"/>
<path id="Vector_4" d="M21.8055 10.5767H21V10.5352H12V14.5352H17.6515C17.2571 15.6434 16.5467 16.6117 15.608 17.3207L15.6095 17.3197L18.7045 19.9387C18.4855 20.1377 22 17.5352 22 12.5352C22 11.8647 21.931 11.2102 21.8055 10.5767Z" fill="#1976D2"/>
</g>
</svg>
