<svg width="24" height="24" viewBox="0 0 24 24" fill="none" xmlns="http://www.w3.org/2000/svg">
<g id="Comercial/shopping-basket">
<g id="shopping-basket-2-Outlined">
<path id="Shape" fill-rule="evenodd" clip-rule="evenodd" d="M2.81791 3H3.90845L3.96298 3.01091C5.47465 3.04023 6.79549 4.03966 7.23461 5.48644L7.45272 6.23892H18.8271C19.8315 6.24349 20.7853 6.68062 21.4444 7.43851C22.1017 8.20121 22.3925 9.21321 22.2405 10.2085L21.5862 14.7233C21.3682 16.4539 19.906 17.7578 18.1619 17.7769H11.7495C10.2176 17.7712 8.8685 16.7671 8.4233 15.3013L5.66423 5.999C5.45295 5.20091 4.734 4.64272 3.90845 4.63582H2.81791C2.36619 4.63582 2 4.26963 2 3.81791C2 3.36619 2.36619 3 2.81791 3ZM9.99363 14.7778C10.2251 15.5543 10.9392 16.0865 11.7494 16.0865H18.1618C19.0644 16.0767 19.8288 15.4182 19.9721 14.527L20.6264 10.0013C20.7156 9.47445 20.5703 8.93499 20.2286 8.52419C19.887 8.1134 19.3831 7.8722 18.8489 7.86378H7.94341L9.99363 14.7778Z" fill="#292D32"/>
<path id="Path" d="M11.4985 19.0854C10.8962 19.0854 10.408 19.5737 10.408 20.176C10.408 20.7783 10.8962 21.2665 11.4985 21.2665C12.1008 21.2665 12.589 20.7783 12.589 20.176C12.589 19.5737 12.1008 19.0854 11.4985 19.0854Z" fill="#292D32"/>
<path id="Path_2" d="M18.042 19.0854C17.4397 19.0854 16.9514 19.5737 16.9514 20.176C16.9514 20.7783 17.4397 21.2665 18.042 21.2665C18.6443 21.2665 19.1325 20.7783 19.1325 20.176C19.1325 19.5737 18.6443 19.0854 18.042 19.0854Z" fill="#292D32"/>
</g>
</g>
</svg>
